<svg width="394" height="282" viewBox="0 0 394 282" fill="none" xmlns="http://www.w3.org/2000/svg">
<g clip-path="url(#clip0_357_1806)">
<rect width="394" height="282" fill="white"/>
<g clip-path="url(#clip1_357_1806)">
<path d="M339.199 266.264C340.81 266.365 341.7 264.361 340.482 263.193L340.36 262.711C340.376 262.672 340.392 262.633 340.409 262.595C342.037 258.706 347.557 258.733 349.172 262.628C350.606 266.084 352.431 269.547 352.88 273.202C353.081 274.815 352.991 276.459 352.633 278.042C355.992 270.696 357.759 262.674 357.759 254.607C357.759 252.58 357.648 250.553 357.422 248.531C357.235 246.878 356.979 245.234 356.646 243.605C354.849 234.802 350.956 226.417 345.342 219.414C342.643 217.937 340.392 215.627 339.033 212.859C338.544 211.861 338.162 210.787 337.98 209.693C338.288 209.733 339.139 205.049 338.907 204.762C339.335 204.112 340.101 203.788 340.569 203.154C342.894 199.997 346.097 200.548 347.769 204.838C351.341 206.643 351.376 209.637 349.184 212.517C347.79 214.349 347.598 216.827 346.374 218.789C346.5 218.95 346.631 219.106 346.757 219.268C349.065 222.233 351.062 225.419 352.745 228.767C352.269 225.046 352.972 220.564 354.169 217.675C355.532 214.382 358.086 211.61 360.336 208.764C363.038 205.345 368.579 206.837 369.055 211.171C369.06 211.213 369.064 211.254 369.068 211.296C368.734 211.485 368.407 211.686 368.087 211.897C366.263 213.105 366.894 215.936 369.055 216.27L369.104 216.278C368.983 217.483 368.776 218.678 368.474 219.853C371.36 231.028 365.13 235.098 356.234 235.281C356.037 235.382 355.846 235.483 355.649 235.579C356.551 238.12 357.271 240.726 357.804 243.368C358.283 245.703 358.615 248.062 358.801 250.432C359.033 253.422 359.013 256.427 358.761 259.412L358.776 259.306C359.416 256.019 361.198 252.948 363.786 250.821C367.642 247.649 373.089 246.481 377.249 243.932C379.251 242.705 381.817 244.291 381.467 246.615L381.45 246.726C380.831 246.978 380.227 247.271 379.643 247.599C379.309 247.787 378.981 247.988 378.661 248.2C376.838 249.408 377.468 252.239 379.629 252.573L379.678 252.58C379.713 252.585 379.743 252.59 379.779 252.595C378.716 255.121 377.236 257.466 375.383 259.488C373.578 269.243 365.828 270.169 357.538 267.328H357.533C356.626 271.281 355.302 275.143 353.6 278.824H339.551C339.501 278.667 339.456 278.506 339.41 278.35C340.71 278.43 342.019 278.355 343.298 278.118C342.255 276.837 341.213 275.546 340.171 274.266C340.146 274.241 340.125 274.215 340.105 274.19C339.577 273.535 339.043 272.884 338.514 272.229L338.514 272.228C338.481 270.216 338.722 268.21 339.199 266.264L339.199 266.264L339.199 266.264V266.264Z" fill="#F2F2F2"/>
<path d="M146.102 278.782C146.102 279.298 146.515 279.711 147.029 279.711H392.828C393.343 279.711 393.756 279.298 393.756 278.782C393.756 278.267 393.343 277.854 392.828 277.854H147.029C146.515 277.854 146.102 278.267 146.102 278.782H146.102Z" fill="#CCCCCC"/>
<path d="M238.441 211.656L234.644 214.709L233.428 215.692C233.319 215.544 233.194 215.388 233.069 215.247C231.877 213.897 230.162 213.124 228.369 213.124H197.902C197.8 212.609 197.777 212.086 197.824 211.563C197.956 210.048 198.681 208.588 199.96 207.566L221.36 190.353C223.839 188.354 227.472 188.753 229.468 191.243L239.33 203.538C241.325 206.028 240.928 209.658 238.441 211.656L238.441 211.656Z" fill="#E6E6E6"/>
<path d="M232.063 213.122H194.44C193.458 213.122 192.499 213.357 191.641 213.794L191.431 213.63C191.057 213.341 190.721 213.013 190.448 212.662C188.819 210.632 188.718 207.689 190.37 205.535L199.967 193.029C201.908 190.5 205.534 190.024 208.06 191.967L229.818 208.712C230.8 209.461 231.463 210.468 231.806 211.561C231.962 212.069 232.055 212.592 232.063 213.122Z" fill="#B338FF"/>
<path d="M221.467 217.057C221.534 217.108 221.575 217.17 221.591 217.245C221.596 217.322 221.573 217.393 221.523 217.46L221.237 217.838C221.187 217.905 221.127 217.943 221.057 217.953C220.976 217.964 220.902 217.944 220.835 217.894L217.851 215.634C217.784 215.584 217.749 215.521 217.744 215.444C217.728 215.369 217.745 215.298 217.795 215.232L218.081 214.853C218.131 214.787 218.197 214.748 218.278 214.737C218.348 214.727 218.416 214.747 218.483 214.797L221.467 217.057Z" fill="white"/>
<path d="M217.128 209.732C217.194 209.782 217.235 209.844 217.252 209.919C217.256 209.996 217.234 210.067 217.184 210.134L212.97 215.713L215.585 215.688C215.668 215.689 215.737 215.715 215.792 215.766C215.846 215.818 215.874 215.886 215.873 215.969L215.884 216.494C215.878 216.584 215.85 216.656 215.798 216.711C215.74 216.76 215.669 216.785 215.586 216.785L212.153 216.816C212.081 216.814 212.023 216.802 211.978 216.778C211.934 216.755 211.888 216.725 211.841 216.69L211.334 216.306C211.268 216.256 211.232 216.192 211.228 216.116C211.218 216.046 211.238 215.978 211.288 215.911L216.209 209.396C216.259 209.329 216.321 209.288 216.396 209.271C216.466 209.262 216.534 209.282 216.6 209.332L217.128 209.732Z" fill="white"/>
<path d="M212.788 206.289C213.312 206.686 213.689 207.112 213.918 207.568C214.136 208.025 214.231 208.472 214.202 208.91C214.167 209.343 214.034 209.727 213.801 210.063C213.763 210.127 213.711 210.161 213.646 210.164C213.581 210.167 213.519 210.146 213.459 210.101L212.922 209.694C212.862 209.649 212.819 209.596 212.793 209.534C212.766 209.472 212.773 209.388 212.811 209.282C212.931 208.986 212.977 208.703 212.952 208.433C212.915 208.165 212.827 207.921 212.69 207.703C212.541 207.486 212.361 207.297 212.149 207.136C211.863 206.92 211.562 206.781 211.245 206.718C210.916 206.656 210.596 206.686 210.286 206.806C209.972 206.933 209.691 207.16 209.445 207.485C209.22 207.784 209.096 208.092 209.075 208.41C209.042 208.73 209.103 209.037 209.256 209.33C209.398 209.626 209.615 209.884 209.907 210.105C210.126 210.27 210.325 210.379 210.504 210.432C210.684 210.484 210.851 210.511 211.005 210.514C211.153 210.511 211.287 210.513 211.407 210.52C211.52 210.522 211.623 210.559 211.716 210.629L212.233 211.021C212.293 211.066 212.331 211.126 212.347 211.201C212.359 211.283 212.338 211.351 212.287 211.406L209.455 214.492C209.389 214.567 209.32 214.609 209.25 214.619C209.169 214.63 209.091 214.608 209.019 214.553L205.546 211.924C205.48 211.873 205.444 211.81 205.44 211.733C205.423 211.658 205.44 211.588 205.49 211.521L205.784 211.133C205.839 211.06 205.905 211.021 205.981 211.016C206.051 211.006 206.119 211.027 206.186 211.077L209.051 213.246L210.722 211.427C210.584 211.416 210.382 211.373 210.117 211.297C209.846 211.228 209.531 211.057 209.173 210.786C208.848 210.54 208.581 210.259 208.371 209.944C208.154 209.623 208.006 209.281 207.926 208.918C207.845 208.554 207.848 208.186 207.932 207.811C208.012 207.443 208.187 207.08 208.458 206.722C208.839 206.217 209.276 205.874 209.767 205.693C210.252 205.506 210.756 205.466 211.282 205.571C211.795 205.678 212.297 205.917 212.788 206.289Z" fill="white"/>
<path d="M208.626 203.294C208.766 203.4 208.785 203.519 208.685 203.652C208.655 203.692 208.614 203.718 208.562 203.731L198.757 206.485C198.665 206.51 198.587 206.524 198.522 206.527C198.451 206.525 198.372 206.491 198.286 206.426L197.957 206.178C197.818 206.072 197.799 205.953 197.899 205.82C197.929 205.78 197.97 205.754 198.021 205.741L207.817 202.979C207.908 202.954 207.99 202.943 208.061 202.945C208.126 202.942 208.205 202.975 208.298 203.046L208.626 203.294ZM204.115 199.784C204.552 200.116 204.801 200.497 204.861 200.929C204.921 201.36 204.814 201.786 204.539 202.204C204.415 202.382 204.308 202.53 204.218 202.65C204.123 202.776 204.002 202.93 203.855 203.111C203.534 203.494 203.161 203.718 202.737 203.783C202.307 203.855 201.864 203.717 201.406 203.371C200.942 203.019 200.689 202.629 200.647 202.201C200.594 201.775 200.705 201.352 200.979 200.934C201.106 200.738 201.218 200.576 201.313 200.45C201.403 200.331 201.52 200.19 201.664 200.027C201.991 199.649 202.374 199.432 202.811 199.377C203.242 199.317 203.677 199.453 204.115 199.784ZM203.618 200.442C203.446 200.311 203.282 200.245 203.127 200.243C202.966 200.235 202.822 200.267 202.695 200.338C202.564 200.416 202.452 200.509 202.36 200.617C202.211 200.786 202.099 200.921 202.024 201.02C201.944 201.126 201.848 201.268 201.736 201.444C201.607 201.628 201.538 201.837 201.529 202.07C201.519 202.303 201.644 202.517 201.903 202.713C202.155 202.904 202.392 202.963 202.613 202.891C202.828 202.814 203.01 202.69 203.158 202.521C203.29 202.36 203.396 202.226 203.477 202.12C203.552 202.02 203.654 201.878 203.783 201.694C203.855 201.571 203.913 201.438 203.959 201.295C203.993 201.154 203.988 201.009 203.943 200.86C203.892 200.707 203.784 200.567 203.618 200.442ZM205.165 206.138C205.603 206.47 205.856 206.845 205.926 207.263C205.996 207.681 205.894 208.1 205.619 208.518C205.496 208.696 205.389 208.845 205.298 208.964C205.203 209.09 205.082 209.244 204.935 209.425C204.614 209.808 204.241 210.033 203.817 210.098C203.388 210.169 202.944 210.032 202.487 209.685C202.022 209.334 201.769 208.944 201.728 208.516C201.675 208.089 201.788 207.669 202.069 207.255C202.197 207.059 202.308 206.898 202.403 206.772C202.493 206.653 202.61 206.511 202.754 206.349C203.075 205.965 203.449 205.753 203.877 205.711C204.298 205.665 204.727 205.807 205.165 206.138ZM204.698 206.756C204.526 206.626 204.362 206.559 204.208 206.557C204.046 206.55 203.902 206.582 203.776 206.653C203.644 206.73 203.532 206.823 203.44 206.931C203.292 207.1 203.18 207.235 203.104 207.334C203.024 207.441 202.928 207.582 202.816 207.758C202.687 207.942 202.621 208.154 202.619 208.392C202.61 208.625 202.731 208.837 202.983 209.028C203.235 209.218 203.472 209.278 203.693 209.205C203.908 209.128 204.09 209.005 204.239 208.835C204.371 208.674 204.477 208.541 204.557 208.434C204.632 208.335 204.734 208.193 204.863 208.008C204.935 207.885 204.994 207.752 205.039 207.609C205.073 207.468 205.068 207.323 205.024 207.175C204.979 207.026 204.871 206.887 204.698 206.756Z" fill="white"/>
<path d="M262.842 19.5254H39.908C31.7301 19.5254 25.0801 26.1841 25.0801 34.3729V264.627C25.0801 272.816 31.7301 279.475 39.908 279.475H262.842C271.02 279.475 277.669 272.816 277.669 264.627V34.3729C277.669 26.1841 271.02 19.5254 262.842 19.5254ZM276.11 264.627C276.11 271.957 270.162 277.914 262.842 277.914H39.908C32.5876 277.914 26.6393 271.957 26.6393 264.627V34.3729C26.6393 27.0429 32.5876 21.0866 39.908 21.0866H262.842C270.162 21.0866 276.11 27.0428 276.11 34.3729V264.627Z" fill="#30004E"/>
<path d="M125.672 34.6289H103.797C102.697 34.6289 101.801 35.5266 101.801 36.6273C101.801 37.7358 102.697 38.6335 103.797 38.6335H125.672C126.771 38.6335 127.668 37.7358 127.668 36.6273C127.668 35.5267 126.771 34.6289 125.672 34.6289Z" fill="#E6E6E6"/>
<path d="M162.313 34.6289H140.437C139.338 34.6289 138.442 35.5266 138.442 36.6273C138.442 37.7358 139.338 38.6335 140.437 38.6335H162.313C163.412 38.6335 164.309 37.7358 164.309 36.6273C164.309 35.5267 163.412 34.6289 162.313 34.6289Z" fill="#E6E6E6"/>
<path d="M198.955 34.6289H177.08C175.981 34.6289 175.084 35.5266 175.084 36.6273C175.084 37.7358 175.981 38.6335 177.08 38.6335H198.955C200.054 38.6335 200.951 37.7358 200.951 36.6273C200.951 35.5267 200.055 34.6289 198.955 34.6289Z" fill="#E6E6E6"/>
<path d="M93.3741 74.5586H65.9323C62.5332 74.5586 59.7734 77.322 59.7734 80.7255V96.4942C59.7734 99.8978 62.5332 102.661 65.9323 102.661H93.374C96.7731 102.661 99.5329 99.8978 99.5329 96.4942V80.7255C99.5329 77.322 96.7731 74.5586 93.374 74.5586H93.3741Z" fill="#F2F2F2"/>
<path d="M93.3741 115.932H65.9323C62.5332 115.932 59.7734 118.695 59.7734 122.099V137.867C59.7734 141.271 62.5332 144.034 65.9323 144.034H93.374C96.7731 144.034 99.5329 141.271 99.5329 137.867V122.099C99.5329 118.695 96.7731 115.932 93.374 115.932H93.3741Z" fill="#E6E6E6"/>
<path d="M93.3741 157.307H65.9323C62.5332 157.307 59.7734 160.07 59.7734 163.474V179.242C59.7734 182.646 62.5332 185.409 65.9323 185.409H93.374C96.7731 185.409 99.5329 182.646 99.5329 179.242V163.474C99.5329 160.07 96.7731 157.307 93.374 157.307H93.3741Z" fill="#E6E6E6"/>
<path d="M154.181 74.5586H126.739C123.34 74.5586 120.58 77.322 120.58 80.7255V96.4942C120.58 99.8978 123.34 102.661 126.739 102.661H154.181C157.58 102.661 160.34 99.8978 160.34 96.4942V80.7255C160.34 77.322 157.58 74.5586 154.181 74.5586Z" fill="#E6E6E6"/>
<path d="M154.181 115.932H126.739C123.34 115.932 120.58 118.695 120.58 122.099V137.867C120.58 141.271 123.34 144.034 126.739 144.034H154.181C157.58 144.034 160.34 141.271 160.34 137.867V122.099C160.34 118.695 157.58 115.932 154.181 115.932Z" fill="#F2F2F2"/>
<path d="M214.989 115.932H187.547C184.148 115.932 181.389 118.695 181.389 122.099V137.867C181.389 141.271 184.148 144.034 187.547 144.034H214.989C218.388 144.034 221.148 141.271 221.148 137.867V122.099C221.148 118.695 218.388 115.932 214.989 115.932Z" fill="#E6E6E6"/>
<path d="M235.034 233.807H67.7174C60.7556 233.807 55.0957 239.474 55.0957 246.445V257.858C55.0957 264.829 60.7556 270.496 67.7174 270.496H235.034C241.996 270.496 247.656 264.829 247.656 257.858V246.445C247.656 239.474 241.996 233.807 235.034 233.807Z" fill="#F2F2F2"/>
<path d="M240.88 211.587C240.748 211.423 240.615 211.252 240.475 211.096C238.986 209.409 236.85 208.441 234.604 208.441C220.468 210.544 206.035 210.503 191.321 208.441C189.902 208.441 188.53 208.832 187.33 209.542C186.636 209.948 185.996 210.471 185.451 211.096C183.962 212.774 183.268 215.022 183.541 217.255L190.378 272.593C190.861 276.52 194.206 279.479 198.15 279.479H227.775C231.72 279.479 235.064 276.52 235.548 272.593L242.385 217.255C242.634 215.233 242.088 213.203 240.88 211.587Z" fill="white"/>
<path d="M240.88 211.587C240.748 211.423 240.615 211.252 240.475 211.096C238.986 209.409 236.85 208.441 234.604 208.441C220.177 209.99 205.749 209.99 191.321 208.441C189.902 208.441 188.53 208.832 187.33 209.542C186.636 209.948 185.996 210.471 185.451 211.096C183.962 212.774 183.268 215.022 183.541 217.255L190.378 272.593C190.557 274.069 191.142 275.404 192.007 276.497C193.449 278.316 195.663 279.471 198.119 279.479H227.775C230.527 279.479 232.991 278.034 234.386 275.833C234.994 274.873 235.399 273.78 235.548 272.593L242.385 217.255C242.634 215.233 242.088 213.203 240.88 211.587ZM240.833 217.06L234.004 272.398C234.004 272.414 233.996 272.437 233.996 272.453C233.583 275.575 230.917 277.917 227.775 277.917H198.15C195.009 277.917 192.342 275.575 191.929 272.453C191.929 272.437 191.921 272.414 191.921 272.398L185.092 217.06C184.874 215.272 185.427 213.476 186.62 212.126C187.158 211.517 187.805 211.025 188.522 210.674C189.38 210.237 190.339 210.003 191.321 210.003C205.749 212.814 220.177 212.814 234.604 210.003C236.397 210.003 238.112 210.775 239.305 212.126C239.43 212.266 239.555 212.423 239.664 212.571C240.607 213.859 241.028 215.467 240.833 217.06Z" fill="#30004E"/>
<path d="M234.792 272.451L234.387 275.831C232.991 278.033 230.528 279.477 227.776 279.477H198.12C195.664 279.469 193.45 278.314 192.008 276.495L191.914 272.451H234.792Z" fill="#30004E"/>
<path d="M265.997 91.2119L228.682 116.889L224.082 111.909L258.408 83.1094L265.997 91.2119Z" fill="#A0616A"/>
<path d="M225.807 121.264C229.479 118.311 231.037 114.146 229.285 111.963C227.534 109.779 223.137 110.404 219.464 113.357C215.792 116.311 214.234 120.475 215.986 122.659C217.737 124.842 222.134 124.218 225.807 121.264Z" fill="#A0616A"/>
<path d="M285.155 275.225L278.064 275.225L274.691 247.84L285.156 247.841L285.155 275.225Z" fill="#A0616A"/>
<path d="M260.863 275.065C260.642 275.437 260.525 276.639 260.525 277.072C260.525 278.403 261.603 279.481 262.932 279.481H284.89C285.796 279.481 286.531 278.745 286.531 277.838V276.922C286.531 276.922 287.618 274.171 285.381 270.78C285.381 270.78 282.602 273.435 278.448 269.276L277.224 267.055L268.358 273.547L263.444 274.153C262.369 274.285 261.416 274.132 260.863 275.065Z" fill="#221C26"/>
<path d="M309.118 275.225L302.027 275.225L298.654 247.84L309.119 247.841L309.118 275.225Z" fill="#A0616A"/>
<path d="M284.826 275.065C284.605 275.437 284.488 276.639 284.488 277.072C284.488 278.403 285.566 279.481 286.895 279.481H308.853C309.759 279.481 310.494 278.745 310.494 277.838V276.922C310.494 276.922 311.581 274.171 309.344 270.78C309.344 270.78 306.565 273.435 302.411 269.276L301.187 267.055L292.321 273.547L287.407 274.153C286.332 274.285 285.379 274.132 284.826 275.065Z" fill="#221C26"/>
<path d="M272.956 122.586L264.834 200.665C264.834 200.665 270.52 253.937 271.738 253.937C272.956 253.937 274.175 254.942 272.956 256.066C271.738 257.19 270.114 258.004 271.738 258.004C273.363 258.004 273.56 257.507 273.461 259.179C273.363 260.85 272.144 262.07 272.144 262.07L288.795 260.85L286.765 206.358L294.481 162.845C294.481 162.845 296.918 253.53 297.73 254.344C298.542 255.157 298.542 253.124 298.542 255.157C298.542 257.19 297.73 258.004 297.73 258.004L297.691 262.07H309.779L326.971 149.019L324.128 120.553L272.956 122.586V122.586Z" fill="#221C26"/>
<path d="M312.754 38.4082H298.134L289.362 40.6063C284.625 43.4227 276.133 51.8045 276.347 57.3168L278.234 105.914C278.234 105.914 271.772 121.162 272.991 121.162C274.209 121.162 268.284 126.043 268.284 128.89C268.284 131.736 266.253 131.33 267.471 132.55C268.69 133.77 326.968 132.55 326.968 132.55C326.968 132.55 327.577 131.33 327.577 129.297C327.577 127.263 328.786 126.053 328.786 126.053V122.234L325.141 108.964L331.639 49.5913L312.754 38.4082Z" fill="#B338FF"/>
<path d="M239.783 97.7178L244.762 106.349C247.48 104.701 260.612 96.8015 262.883 96.6178C263.738 96.5484 263.93 96.3875 263.968 96.3395C264.006 96.2922 263.995 96.1863 263.972 96.017C263.937 95.7548 263.883 95.3584 264.19 95.0199C264.64 94.5236 265.035 94.8225 265.226 94.9658C265.521 95.1892 266.017 95.5627 267.613 95.3363C268.021 95.2784 268.278 95.2288 268.44 95.1899L268.422 95.1731C268.074 94.8446 267.491 94.2949 267.449 93.4122C267.411 92.6216 267.4 92.4097 267.688 92.2732C267.954 92.149 268.161 92.3358 268.284 92.4471C268.492 92.6369 268.835 92.9471 269.54 92.9205C271.344 92.3297 288.11 68.0898 291.384 58.4333C292.199 56.0289 292.098 53.796 291.084 51.7979C289.141 47.9668 284.382 46.0477 283.208 45.623L259.407 79.0704L239.783 97.7178H239.783Z" fill="#B338FF"/>
<path d="M305.702 35.2787C314.399 35.2787 321.45 28.2186 321.45 19.5095C321.45 10.8004 314.399 3.74023 305.702 3.74023C297.004 3.74023 289.953 10.8004 289.953 19.5095C289.953 28.2186 297.004 35.2787 305.702 35.2787Z" fill="#A0616A"/>
<path d="M324.755 9.92694C323.371 6.95508 320.304 4.64593 317.033 4.8144C317.231 3.98951 316.865 3.10673 316.278 2.49577C315.69 1.88486 314.908 1.50255 314.124 1.18151C310.249 -0.405186 305.885 -0.769201 301.801 0.15365C301.391 -0.414741 295.562 1.0198 296.259 1.32435C296.956 1.62895 294.408 2.3564 294.288 3.10831C294.156 3.9321 293.284 4.43715 292.461 4.56565C291.638 4.69419 290.788 4.56907 289.969 4.72526C288.32 5.03996 290.166 7.07077 290.142 8.75214C290.119 10.4336 288.228 11.5858 289.868 11.9469C291.561 12.3196 289.219 15.3211 290.922 14.9972C294.774 14.2644 311.596 12.702 313.093 16.3308C313.509 17.3384 313.769 18.4801 314.586 19.2008C315.698 20.1818 317.551 20.103 318.461 21.2746C319.194 22.2191 318.984 23.6058 318.441 24.6718C317.899 25.7377 317.074 26.6456 316.583 27.7361C315.924 29.1982 315.928 30.8267 316.116 32.4434C316.262 32.3674 316.485 32.2914 316.821 32.2153L316.676 32.2336C320.879 29.1682 323.967 24.6033 325.25 19.5581C326.059 16.3805 326.139 12.8988 324.755 9.92695V9.92694Z" fill="#221C26"/>
<path d="M335.828 140.947H308.382C305.197 140.947 302.615 143.533 302.615 146.722V162.494C302.615 165.684 305.197 168.269 308.382 168.269H335.828C339.013 168.269 341.595 165.684 341.595 162.494V146.722C341.595 143.533 339.013 140.947 335.828 140.947Z" fill="#B338FF"/>
<path d="M310.701 159.057C310.609 159.057 310.539 159.033 310.489 158.983C310.439 158.924 310.414 158.853 310.414 158.77V150.614C310.414 150.523 310.439 150.452 310.489 150.402C310.539 150.344 310.609 150.314 310.701 150.314H314.119C314.742 150.314 315.25 150.419 315.64 150.627C316.04 150.827 316.331 151.101 316.514 151.451C316.705 151.801 316.801 152.192 316.801 152.625C316.801 152.967 316.742 153.262 316.626 153.512C316.518 153.753 316.381 153.953 316.214 154.111C316.048 154.261 315.886 154.378 315.728 154.461C316.052 154.619 316.339 154.877 316.588 155.236C316.846 155.594 316.975 156.027 316.975 156.535C316.975 156.992 316.871 157.413 316.663 157.796C316.455 158.179 316.144 158.487 315.728 158.72C315.32 158.945 314.813 159.057 314.206 159.057H310.701ZM311.636 158.046H314.044C314.584 158.046 315 157.9 315.291 157.609C315.582 157.317 315.728 156.959 315.728 156.535C315.728 156.093 315.582 155.731 315.291 155.448C315 155.156 314.584 155.011 314.044 155.011H311.636V158.046ZM311.636 154.012H313.932C314.464 154.012 314.867 153.891 315.142 153.649C315.416 153.399 315.553 153.062 315.553 152.638C315.553 152.213 315.416 151.888 315.142 151.663C314.867 151.439 314.464 151.326 313.932 151.326H311.636V154.012Z" fill="white"/>
<path d="M322.039 159.182C321.341 159.182 320.738 159.057 320.23 158.808C319.731 158.558 319.345 158.179 319.07 157.671C318.804 157.155 318.671 156.493 318.671 155.685V150.614C318.671 150.523 318.696 150.452 318.746 150.402C318.796 150.344 318.867 150.314 318.958 150.314H319.594C319.686 150.314 319.756 150.344 319.806 150.402C319.864 150.452 319.894 150.523 319.894 150.614V155.71C319.894 156.526 320.085 157.13 320.467 157.521C320.85 157.913 321.374 158.108 322.039 158.108C322.696 158.108 323.216 157.913 323.598 157.521C323.989 157.13 324.184 156.526 324.184 155.71V150.614C324.184 150.523 324.209 150.452 324.259 150.402C324.318 150.344 324.388 150.314 324.471 150.314H325.12C325.203 150.314 325.27 150.344 325.32 150.402C325.378 150.452 325.407 150.523 325.407 150.614V155.685C325.407 156.493 325.27 157.155 324.995 157.671C324.729 158.179 324.347 158.558 323.848 158.808C323.349 159.057 322.746 159.182 322.039 159.182Z" fill="white"/>
<path d="M330.112 159.057C330.028 159.057 329.958 159.033 329.9 158.983C329.85 158.924 329.825 158.853 329.825 158.77V155.823L326.819 150.727C326.81 150.702 326.802 150.677 326.794 150.652C326.785 150.627 326.781 150.598 326.781 150.564C326.781 150.498 326.806 150.439 326.856 150.389C326.906 150.339 326.964 150.314 327.031 150.314H327.679C327.754 150.314 327.821 150.335 327.879 150.377C327.937 150.41 327.979 150.46 328.004 150.527L330.436 154.574L332.868 150.527C332.91 150.46 332.956 150.41 333.005 150.377C333.064 150.335 333.13 150.314 333.205 150.314H333.841C333.916 150.314 333.978 150.339 334.028 150.389C334.078 150.439 334.103 150.498 334.103 150.564C334.103 150.598 334.099 150.627 334.091 150.652C334.082 150.677 334.07 150.702 334.053 150.727L331.06 155.823V158.77C331.06 158.853 331.03 158.924 330.972 158.983C330.922 159.033 330.852 159.057 330.76 159.057H330.112Z" fill="white"/>
<path d="M341.299 97.2162L325.73 139.788L319.1 138.396L330.426 95.0117L341.299 97.2162Z" fill="#A0616A"/>
<path d="M325.915 145.025C327.201 140.487 326.062 136.189 323.372 135.424C320.681 134.66 317.457 137.719 316.172 142.257C314.886 146.794 316.025 151.092 318.716 151.857C321.406 152.621 324.63 149.562 325.915 145.025Z" fill="#A0616A"/>
<path d="M315.869 40.6074C315.869 40.6074 332.857 43.4925 336.919 52.8457C340.98 62.1989 345.041 92.2916 343.823 93.5116C342.604 94.7316 341.386 93.5116 342.604 94.7316C343.823 95.9516 345.887 94.3442 344.043 96.5712C342.198 98.7982 341.386 97.5782 341.386 98.3915C341.386 99.2049 343.011 98.9839 341.386 100.721C339.762 102.458 334.482 120.351 334.482 120.351L324.329 117.098L326.36 89.8517L315.869 40.6074V40.6074Z" fill="#B338FF"/>
<path d="M234.482 118.307H207.037C203.852 118.307 201.27 120.892 201.27 124.081V139.854C201.27 143.043 203.852 145.629 207.037 145.629H234.482C237.667 145.629 240.249 143.043 240.249 139.854V124.081C240.249 120.892 237.667 118.307 234.482 118.307Z" fill="#30004E"/>
<path d="M184.908 218.589L184.889 220.15L240.872 220.857L240.891 219.296L184.908 218.589Z" fill="#30004E"/>
<path d="M212.683 136.263C212.617 136.263 212.558 136.238 212.508 136.188C212.459 136.138 212.434 136.079 212.434 136.013C212.434 135.971 212.438 135.925 212.446 135.875L215.54 127.794C215.573 127.711 215.619 127.644 215.677 127.594C215.735 127.545 215.822 127.52 215.939 127.52H216.787C216.895 127.52 216.978 127.545 217.036 127.594C217.103 127.644 217.153 127.711 217.186 127.794L220.267 135.875C220.284 135.925 220.292 135.971 220.292 136.013C220.292 136.079 220.267 136.138 220.217 136.188C220.167 136.238 220.109 136.263 220.042 136.263H219.406C219.307 136.263 219.232 136.238 219.182 136.188C219.14 136.138 219.111 136.092 219.094 136.05L218.408 134.277H214.317L213.631 136.05C213.623 136.092 213.594 136.138 213.544 136.188C213.494 136.238 213.419 136.263 213.319 136.263H212.683ZM214.679 133.203H218.047L216.363 128.769L214.679 133.203Z" fill="white"/>
<path d="M221.913 136.263C221.821 136.263 221.75 136.238 221.7 136.188C221.651 136.129 221.626 136.059 221.626 135.975V127.819C221.626 127.728 221.651 127.657 221.7 127.607C221.75 127.549 221.821 127.52 221.913 127.52H224.744C225.601 127.52 226.291 127.649 226.815 127.907C227.339 128.165 227.721 128.548 227.962 129.056C228.203 129.555 228.328 130.172 228.336 130.904C228.345 131.279 228.349 131.608 228.349 131.891C228.349 132.174 228.345 132.499 228.336 132.865C228.32 133.631 228.191 134.268 227.95 134.776C227.717 135.276 227.343 135.651 226.827 135.9C226.32 136.142 225.646 136.263 224.806 136.263H221.913ZM222.848 135.201H224.744C225.318 135.201 225.775 135.122 226.116 134.964C226.457 134.805 226.702 134.551 226.852 134.202C227.01 133.852 227.093 133.39 227.102 132.815C227.118 132.566 227.126 132.349 227.126 132.166C227.126 131.974 227.126 131.787 227.126 131.604C227.126 131.412 227.118 131.196 227.102 130.954C227.085 130.147 226.894 129.551 226.528 129.168C226.162 128.777 225.546 128.581 224.682 128.581H222.848V135.201Z" fill="white"/>
</g>
</g>
<defs>
<clipPath id="clip0_357_1806">
<rect width="394" height="282" fill="white"/>
</clipPath>
<clipPath id="clip1_357_1806">
<rect width="368.676" height="280.06" fill="white" transform="translate(25.0801 -0.349609)"/>
</clipPath>
</defs>
</svg>
