<svg width="18" height="19" viewBox="0 0 18 19" fill="none" xmlns="http://www.w3.org/2000/svg">
<path d="M15.0904 13.782C14.7588 12.9966 14.2776 12.2831 13.6736 11.6814C13.0714 11.078 12.3581 10.5969 11.573 10.2646C11.566 10.2611 11.5589 10.2594 11.5519 10.2559C12.647 9.46484 13.3589 8.17637 13.3589 6.72266C13.3589 4.31445 11.4078 2.36328 8.99956 2.36328C6.59135 2.36328 4.64018 4.31445 4.64018 6.72266C4.64018 8.17637 5.35209 9.46484 6.44721 10.2576C6.44018 10.2611 6.43315 10.2629 6.42612 10.2664C5.63862 10.5986 4.93198 11.075 4.32553 11.6832C3.72209 12.2854 3.24097 12.9987 2.90874 13.7838C2.58235 14.5524 2.40632 15.3764 2.39018 16.2113C2.38971 16.2301 2.393 16.2488 2.39986 16.2662C2.40672 16.2837 2.417 16.2996 2.4301 16.313C2.44321 16.3265 2.45887 16.3372 2.47617 16.3444C2.49346 16.3517 2.51204 16.3555 2.53081 16.3555H3.58549C3.66284 16.3555 3.72436 16.2939 3.72612 16.2184C3.76127 14.8613 4.3062 13.5904 5.26948 12.6271C6.26616 11.6305 7.58979 11.082 8.99956 11.082C10.4093 11.082 11.733 11.6305 12.7296 12.6271C13.6929 13.5904 14.2378 14.8613 14.273 16.2184C14.2748 16.2957 14.3363 16.3555 14.4136 16.3555H15.4683C15.4871 16.3555 15.5057 16.3517 15.5229 16.3444C15.5402 16.3372 15.5559 16.3265 15.569 16.313C15.5821 16.2996 15.5924 16.2837 15.5993 16.2662C15.6061 16.2488 15.6094 16.2301 15.6089 16.2113C15.5914 15.3711 15.4173 14.5537 15.0904 13.782ZM8.99956 9.74609C8.19272 9.74609 7.43335 9.43145 6.86206 8.86016C6.29077 8.28887 5.97612 7.52949 5.97612 6.72266C5.97612 5.91582 6.29077 5.15645 6.86206 4.58516C7.43335 4.01387 8.19272 3.69922 8.99956 3.69922C9.80639 3.69922 10.5658 4.01387 11.1371 4.58516C11.7083 5.15645 12.023 5.91582 12.023 6.72266C12.023 7.52949 11.7083 8.28887 11.1371 8.86016C10.5658 9.43145 9.80639 9.74609 8.99956 9.74609Z" fill="#221C26"/>
</svg>
