<svg width="463" height="327" viewBox="0 0 463 327" fill="none" xmlns="http://www.w3.org/2000/svg">
<rect width="463" height="326" transform="translate(0 0.508423)" fill="white"/>
<g clip-path="url(#clip0_357_2210)">
<path d="M392.14 303.186C383.074 310.154 371.325 310.504 359.968 309.648C358.382 309.528 356.808 309.388 355.248 309.237C355.238 309.235 355.226 309.236 355.216 309.233C355.141 309.225 355.066 309.218 354.995 309.213C354.673 309.181 354.35 309.149 354.032 309.117L354.107 309.27L354.343 309.746C354.258 309.587 354.173 309.431 354.088 309.271C354.063 309.223 354.035 309.176 354.011 309.128C351.069 303.666 348.151 298.003 347.406 291.766C346.637 285.293 348.799 277.962 354.14 274.781C354.84 274.365 355.582 274.033 356.351 273.793C356.67 273.689 356.994 273.605 357.321 273.531C359.324 273.056 361.41 273.159 363.363 273.83C365.316 274.5 367.066 275.713 368.434 277.345C369.802 278.976 370.738 280.967 371.146 283.112C371.554 285.257 371.419 287.479 370.755 289.55C375.282 284.597 374.438 276.562 372.876 269.846C371.311 263.131 369.417 255.658 372.599 249.626C374.369 246.269 377.48 244.186 380.972 243.347C381.079 243.322 381.186 243.297 381.293 243.276C385.454 242.377 389.779 243.185 393.405 245.54C400.081 250.029 403.51 258.539 404.623 266.876C406.416 280.291 402.448 295.263 392.14 303.186Z" fill="#F2F2F2"/>
<path d="M389.214 281.681C388.951 284.64 388.285 287.543 387.237 290.297C386.27 292.734 384.968 295.003 383.373 297.029C380.057 301.17 375.857 304.401 371.127 306.45C367.549 308.013 363.8 309.088 359.969 309.648C358.384 309.529 356.809 309.389 355.249 309.238C355.24 309.235 355.227 309.236 355.218 309.233C355.143 309.226 355.067 309.218 354.996 309.214C354.674 309.181 354.352 309.149 354.033 309.117L354.108 309.27L354.344 309.746C354.259 309.587 354.175 309.431 354.09 309.272C354.065 309.224 354.037 309.176 354.012 309.128C356.883 306.076 359.028 302.334 360.264 298.215C361.501 294.096 361.795 289.722 361.12 285.457C360.415 281.222 358.781 277.226 356.352 273.793C356.672 273.689 356.995 273.605 357.323 273.531C358.246 274.877 359.055 276.308 359.742 277.806C362.206 283.15 362.993 289.198 361.984 295.055C361.047 300.355 358.711 305.26 355.252 309.194C355.555 309.171 355.861 309.145 356.16 309.116C361.829 308.604 367.487 307.303 372.629 304.64C377.024 302.419 380.839 299.079 383.74 294.914C386.854 290.332 388.226 284.821 388.462 279.219C388.643 273.184 388.05 267.152 386.699 261.288C385.389 255.309 383.399 249.524 380.772 244.061C380.713 243.937 380.701 243.794 380.738 243.661C380.776 243.528 380.86 243.416 380.973 243.347C381.067 243.279 381.183 243.254 381.294 243.276C381.349 243.292 381.4 243.32 381.443 243.359C381.486 243.399 381.52 243.448 381.542 243.503C381.866 244.178 382.184 244.853 382.49 245.536C385.039 251.224 386.915 257.227 388.076 263.408C389.203 269.371 389.804 275.609 389.214 281.681Z" fill="white"/>
<path d="M46.3604 110.116C46.0905 110.115 45.823 110.061 45.5716 109.957C45.165 109.79 44.8155 109.495 44.5697 109.112C44.3238 108.728 44.1931 108.274 44.1949 107.809V83.7402C44.1941 82.9255 43.8903 82.1444 43.3504 81.5683C42.8104 80.9922 42.0783 80.6682 41.3146 80.6672H36.6947C34.7859 80.6649 32.9559 79.8549 31.6062 78.415C30.2565 76.975 29.4973 75.0227 29.4951 72.9862V24.5942C29.4973 22.5577 30.2565 20.6054 31.6062 19.1654C32.9559 17.7255 34.7859 16.9155 36.6947 16.9132H199.653C201.562 16.9155 203.392 17.7255 204.741 19.1654C206.091 20.6054 206.85 22.5577 206.852 24.5942V72.9862C206.85 75.0227 206.091 76.975 204.741 78.415C203.392 79.8549 201.562 80.6649 199.653 80.6672H73.8723C73.4731 80.6677 73.0783 80.7565 72.7128 80.928C72.3473 81.0995 72.0192 81.35 71.749 81.6637L47.9466 109.366C47.7457 109.602 47.5008 109.79 47.2276 109.919C46.9545 110.049 46.6591 110.115 46.3604 110.116ZM36.6947 17.9367C35.0403 17.9387 33.4541 18.6407 32.2843 19.8888C31.1144 21.1369 30.4563 22.8291 30.4545 24.5942V72.9862C30.4563 74.7513 31.1144 76.4435 32.2843 77.6916C33.4541 78.9397 35.0403 79.6417 36.6947 79.6437H41.3146C42.3326 79.6449 43.3086 80.0769 44.0284 80.8449C44.7483 81.6129 45.1531 82.6541 45.1543 83.7402V107.809C45.1543 108.067 45.2273 108.319 45.3639 108.532C45.5004 108.745 45.6941 108.909 45.9195 109.003C46.1449 109.096 46.3915 109.115 46.6271 109.056C46.8626 108.998 47.0761 108.865 47.2395 108.675L71.0419 80.972C71.402 80.5539 71.8394 80.22 72.3266 79.9914C72.8138 79.7627 73.3401 79.6443 73.8724 79.6437H199.653C201.307 79.6417 202.893 78.9397 204.063 77.6916C205.233 76.4435 205.891 74.7513 205.893 72.9862V24.5942C205.891 22.8291 205.233 21.1369 204.063 19.8888C202.893 18.6407 201.307 17.9387 199.653 17.9367H36.6947Z" fill="#CCCCCC"/>
<path d="M47.1551 38.7073C50.6345 38.7073 53.4551 35.6981 53.4551 31.9862C53.4551 28.2742 50.6345 25.265 47.1551 25.265C43.6758 25.265 40.8552 28.2742 40.8552 31.9862C40.8552 35.6981 43.6758 38.7073 47.1551 38.7073Z" fill="#CCCCCC"/>
<path d="M192.305 69.1778H44.0466C43.605 69.1783 43.1677 69.086 42.7596 68.9061C42.3515 68.7262 41.9806 68.4623 41.6682 68.1294C41.3557 67.7965 41.1079 67.4011 40.9388 66.9659C40.7697 66.5307 40.6826 66.0643 40.6826 65.5932C40.6826 65.1221 40.7697 64.6556 40.9388 64.2204C41.1079 63.7852 41.3557 63.3899 41.6682 63.0569C41.9806 62.724 42.3515 62.4601 42.7596 62.2802C43.1677 62.1003 43.605 62.008 44.0466 62.0085H192.305C192.746 62.008 193.184 62.1003 193.592 62.2802C194 62.4601 194.371 62.724 194.683 63.0569C194.996 63.3899 195.244 63.7852 195.413 64.2204C195.582 64.6556 195.669 65.1221 195.669 65.5932C195.669 66.0643 195.582 66.5307 195.413 66.9659C195.244 67.4011 194.996 67.7965 194.683 68.1294C194.371 68.4623 194 68.7262 193.592 68.9061C193.184 69.086 192.746 69.1783 192.305 69.1778Z" fill="#CCCCCC"/>
<path d="M144.005 53.942H44.0466C43.605 53.9425 43.1677 53.8502 42.7596 53.6703C42.3515 53.4905 41.9806 53.2265 41.6682 52.8936C41.3557 52.5607 41.1079 52.1653 40.9388 51.7301C40.7697 51.2949 40.6826 50.8285 40.6826 50.3574C40.6826 49.8863 40.7697 49.4198 40.9388 48.9846C41.1079 48.5494 41.3557 48.1541 41.6682 47.8212C41.9806 47.4882 42.3515 47.2243 42.7596 47.0444C43.1677 46.8645 43.605 46.7722 44.0466 46.7728H144.005C144.447 46.7722 144.884 46.8645 145.292 47.0444C145.701 47.2243 146.071 47.4882 146.384 47.8212C146.696 48.1541 146.944 48.5494 147.113 48.9846C147.282 49.4198 147.369 49.8863 147.369 50.3574C147.369 50.8285 147.282 51.2949 147.113 51.7301C146.944 52.1653 146.696 52.5607 146.384 52.8936C146.071 53.2265 145.701 53.4905 145.292 53.6703C144.884 53.8502 144.447 53.9425 144.005 53.942Z" fill="#CCCCCC"/>
<path d="M46.3604 280.832C46.0905 280.832 45.823 280.778 45.5716 280.673C45.165 280.507 44.8156 280.212 44.5697 279.828C44.3238 279.445 44.1931 278.991 44.1949 278.526V254.457C44.1941 253.642 43.8903 252.861 43.3504 252.285C42.8104 251.709 42.0783 251.385 41.3146 251.384H36.6947C34.7859 251.382 32.9559 250.572 31.6062 249.132C30.2565 247.692 29.4973 245.739 29.4951 243.703V195.311C29.4973 193.274 30.2565 191.322 31.6062 189.882C32.9559 188.442 34.7859 187.632 36.6947 187.63H199.653C201.562 187.632 203.392 188.442 204.741 189.882C206.091 191.322 206.85 193.274 206.852 195.311V243.703C206.85 245.739 206.091 247.692 204.741 249.132C203.392 250.572 201.562 251.382 199.653 251.384H73.8723C73.4731 251.384 73.0783 251.473 72.7128 251.645C72.3473 251.816 72.0192 252.067 71.749 252.38L47.9466 280.083C47.7457 280.319 47.5008 280.507 47.2276 280.636C46.9545 280.765 46.6591 280.832 46.3604 280.832ZM36.6947 188.653C35.0403 188.655 33.4541 189.357 32.2843 190.606C31.1144 191.854 30.4563 193.546 30.4545 195.311V243.703C30.4563 245.468 31.1144 247.16 32.2843 248.408C33.4541 249.656 35.0403 250.358 36.6947 250.36H41.3146C42.3326 250.362 43.3086 250.794 44.0284 251.562C44.7483 252.33 45.1531 253.371 45.1543 254.457V278.526C45.1543 278.784 45.2273 279.036 45.3639 279.249C45.5004 279.462 45.6941 279.626 45.9195 279.719C46.1449 279.813 46.3915 279.832 46.6271 279.773C46.8626 279.715 47.0761 279.581 47.2395 279.391L71.0419 251.689C71.402 251.271 71.8394 250.937 72.3266 250.708C72.8138 250.479 73.3401 250.361 73.8724 250.36H199.653C201.307 250.358 202.893 249.656 204.063 248.408C205.233 247.16 205.891 245.468 205.893 243.703V195.311C205.891 193.546 205.233 191.854 204.063 190.606C202.893 189.357 201.307 188.655 199.653 188.653L36.6947 188.653Z" fill="#CCCCCC"/>
<path d="M287.007 192.113C286.708 192.112 286.413 192.046 286.14 191.917C285.866 191.788 285.622 191.599 285.421 191.363L261.618 163.661C261.348 163.347 261.02 163.097 260.654 162.925C260.289 162.754 259.894 162.665 259.495 162.664H133.714C131.806 162.662 129.976 161.852 128.626 160.412C127.276 158.972 126.517 157.02 126.515 154.983V106.591C126.517 104.555 127.276 102.603 128.626 101.163C129.976 99.7226 131.806 98.9126 133.714 98.9103H296.673C298.581 98.9126 300.411 99.7226 301.761 101.163C303.111 102.602 303.87 104.555 303.872 106.591V154.983C303.87 157.02 303.111 158.972 301.761 160.412C300.411 161.852 298.581 162.662 296.673 162.664H292.053C291.289 162.665 290.557 162.989 290.017 163.565C289.477 164.141 289.173 164.923 289.172 165.737V189.806C289.174 190.271 289.043 190.725 288.798 191.109C288.552 191.492 288.202 191.787 287.796 191.954C287.544 192.058 287.277 192.112 287.007 192.113ZM133.714 99.9338C132.06 99.9358 130.474 100.638 129.304 101.886C128.134 103.134 127.476 104.826 127.474 106.591V154.983C127.476 156.748 128.134 158.441 129.304 159.689C130.474 160.937 132.06 161.639 133.714 161.641H259.495C260.027 161.641 260.553 161.76 261.041 161.988C261.528 162.217 261.965 162.551 262.325 162.969L286.128 190.672C286.291 190.862 286.505 190.995 286.74 191.053C286.976 191.112 287.222 191.093 287.448 191C287.673 190.906 287.867 190.742 288.003 190.529C288.14 190.316 288.213 190.064 288.213 189.806V165.737C288.214 164.651 288.619 163.61 289.339 162.842C290.059 162.074 291.035 161.642 292.053 161.641H296.673C298.327 161.639 299.913 160.937 301.083 159.689C302.253 158.441 302.911 156.748 302.913 154.983V106.591C302.911 104.826 302.253 103.134 301.083 101.886C299.913 100.638 298.327 99.9358 296.673 99.9338L133.714 99.9338Z" fill="#3F3D56"/>
<path d="M47.1551 209.426C50.6345 209.426 53.4551 206.416 53.4551 202.704C53.4551 198.993 50.6345 195.983 47.1551 195.983C43.6758 195.983 40.8552 198.993 40.8552 202.704C40.8552 206.416 43.6758 209.426 47.1551 209.426Z" fill="#CCCCCC"/>
<path d="M192.305 239.894H44.0466C43.605 239.895 43.1677 239.803 42.7596 239.623C42.3515 239.443 41.9806 239.179 41.6682 238.846C41.3557 238.513 41.1079 238.118 40.9388 237.683C40.7697 237.247 40.6826 236.781 40.6826 236.31C40.6826 235.839 40.7697 235.372 40.9388 234.937C41.1079 234.502 41.3557 234.107 41.6682 233.774C41.9806 233.441 42.3515 233.177 42.7596 232.997C43.1677 232.817 43.605 232.725 44.0466 232.725H192.305C193.196 232.725 194.051 233.103 194.681 233.775C195.311 234.447 195.665 235.359 195.665 236.31C195.665 237.261 195.311 238.172 194.681 238.845C194.051 239.517 193.196 239.894 192.305 239.894Z" fill="#CCCCCC"/>
<path d="M144.005 224.66H44.0466C43.605 224.661 43.1677 224.569 42.7596 224.389C42.3515 224.209 41.9806 223.945 41.6682 223.612C41.3557 223.279 41.1079 222.884 40.9388 222.448C40.7697 222.013 40.6826 221.547 40.6826 221.076C40.6826 220.605 40.7697 220.138 40.9388 219.703C41.1079 219.268 41.3557 218.872 41.6682 218.539C41.9806 218.207 42.3515 217.943 42.7596 217.763C43.1677 217.583 43.605 217.491 44.0466 217.491H144.005C144.447 217.491 144.884 217.583 145.292 217.763C145.701 217.943 146.071 218.207 146.384 218.539C146.696 218.872 146.944 219.268 147.113 219.703C147.282 220.138 147.369 220.605 147.369 221.076C147.369 221.547 147.282 222.013 147.113 222.448C146.944 222.884 146.696 223.279 146.384 223.612C146.071 223.945 145.701 224.209 145.292 224.389C144.884 224.569 144.447 224.661 144.005 224.66Z" fill="#CCCCCC"/>
<path d="M144.175 120.257C147.654 120.257 150.475 117.248 150.475 113.536C150.475 109.824 147.654 106.815 144.175 106.815C140.696 106.815 137.875 109.824 137.875 113.536C137.875 117.248 140.696 120.257 144.175 120.257Z" fill="#3F3D56"/>
<path d="M289.322 150.726H141.064C140.173 150.726 139.318 150.348 138.688 149.676C138.058 149.004 137.704 148.092 137.704 147.141C137.704 146.191 138.058 145.279 138.688 144.607C139.318 143.934 140.173 143.557 141.064 143.557H289.322C290.213 143.557 291.068 143.934 291.698 144.607C292.328 145.279 292.682 146.191 292.682 147.141C292.682 148.092 292.328 149.004 291.698 149.676C291.068 150.348 290.213 150.726 289.322 150.726Z" fill="#B338FF"/>
<path d="M241.023 135.492H141.065C140.623 135.492 140.186 135.4 139.778 135.22C139.37 135.04 138.999 134.776 138.686 134.443C138.374 134.11 138.126 133.715 137.957 133.28C137.788 132.845 137.701 132.378 137.701 131.907C137.701 131.436 137.788 130.97 137.957 130.534C138.126 130.099 138.374 129.704 138.686 129.371C138.999 129.038 139.37 128.774 139.778 128.594C140.186 128.414 140.623 128.322 141.065 128.323H241.023C241.465 128.322 241.902 128.414 242.311 128.594C242.719 128.774 243.089 129.038 243.402 129.371C243.714 129.704 243.962 130.099 244.131 130.534C244.3 130.97 244.387 131.436 244.387 131.907C244.387 132.378 244.3 132.845 244.131 133.28C243.962 133.715 243.714 134.11 243.402 134.443C243.089 134.776 242.719 135.04 242.311 135.22C241.902 135.4 241.465 135.492 241.023 135.492Z" fill="#B338FF"/>
<path d="M289.258 201.325C289.402 200.589 289.696 199.895 290.118 199.292C290.541 198.69 291.082 198.194 291.703 197.839C292.325 197.484 293.012 197.278 293.716 197.237C294.42 197.196 295.125 197.32 295.779 197.601L307.032 183.806L309.422 192.961L298.369 204.657C297.855 205.798 296.966 206.699 295.87 207.187C294.775 207.676 293.55 207.719 292.427 207.308C291.304 206.898 290.361 206.062 289.777 204.959C289.193 203.856 289.008 202.563 289.258 201.325Z" fill="#FFB8B8"/>
<path d="M351.019 136.591C357.526 136.591 362.8 130.963 362.8 124.022C362.8 117.08 357.526 111.453 351.019 111.453C344.512 111.453 339.238 117.08 339.238 124.022C339.238 130.963 344.512 136.591 351.019 136.591Z" fill="#FFB8B8"/>
<path d="M337.178 297.029L331.297 297.029L328.499 272.829L337.179 272.83L337.178 297.029Z" fill="#FFB8B8"/>
<path d="M338.678 303.11L319.716 303.109V302.853C319.716 301.819 319.907 300.796 320.278 299.84C320.649 298.885 321.193 298.017 321.878 297.286C322.563 296.555 323.377 295.975 324.272 295.579C325.168 295.183 326.128 294.98 327.097 294.98H327.097L338.678 294.98L338.678 303.11Z" fill="#2F2E41"/>
<path d="M354.927 303.68L349.047 303.68L348.232 280.058L354.929 279.481L354.927 303.68Z" fill="#FFB8B8"/>
<path d="M356.426 309.762L337.465 309.761V309.505C337.465 308.471 337.655 307.447 338.026 306.492C338.397 305.536 338.941 304.668 339.626 303.937C340.312 303.206 341.125 302.626 342.021 302.23C342.916 301.835 343.876 301.631 344.845 301.631H344.846L356.427 301.632L356.426 309.762Z" fill="#2F2E41"/>
<path d="M353.253 299.267L348.674 298.691C348.154 298.625 347.675 298.36 347.325 297.946C346.974 297.531 346.776 296.996 346.767 296.438L345.909 232.807C345.907 232.627 345.845 232.454 345.735 232.318C345.625 232.181 345.473 232.09 345.306 232.061C345.14 232.032 344.969 232.066 344.824 232.158C344.678 232.25 344.568 232.393 344.512 232.563L338.158 251.702L338.612 287.576C338.62 288.168 338.414 288.741 338.036 289.174C337.658 289.608 337.138 289.87 336.584 289.906L330.605 290.177C330.059 290.21 329.52 290.021 329.098 289.649C328.676 289.276 328.402 288.747 328.33 288.168L325.207 247.586L325.205 247.561L329.943 205.178L365.527 207.925L355.649 297.25C355.586 297.809 355.334 298.325 354.939 298.7C354.544 299.074 354.035 299.282 353.507 299.283C353.422 299.283 353.337 299.277 353.253 299.267Z" fill="#2F2E41"/>
<path d="M330.095 208.934C329.776 208.752 329.505 208.487 329.307 208.163C329.11 207.84 328.992 207.468 328.966 207.083C328.966 207.083 332.166 185.853 333.338 185.455L330.773 162.752C330.465 159.983 330.68 157.176 331.403 154.497C332.126 151.817 333.344 149.319 334.984 147.149C336.564 145.043 338.528 143.301 340.757 142.027C342.985 140.753 345.433 139.974 347.951 139.737C348.31 139.703 348.666 139.677 349.021 139.658C352.057 139.485 355.087 140.096 357.854 141.44C360.621 142.783 363.043 144.82 364.914 147.377C366.855 149.955 368.184 152.995 368.787 156.239C369.39 159.483 369.249 162.834 368.377 166.007L366.939 171.35V208.685C366.937 209.049 366.855 209.408 366.7 209.733C366.545 210.057 366.321 210.339 366.045 210.554C361.565 214.063 356.501 215.303 351.581 215.303C342.27 215.303 333.469 210.861 330.095 208.934Z" fill="#B338FF"/>
<path d="M302.47 202.103L296.281 197.165C296.038 196.972 295.836 196.726 295.688 196.443C295.541 196.161 295.45 195.849 295.423 195.526C295.396 195.204 295.433 194.88 295.532 194.574C295.63 194.268 295.788 193.988 295.995 193.751L332.864 151.545C334.047 150.202 335.643 149.356 337.361 149.161C339.079 148.966 340.806 149.435 342.228 150.483L342.228 150.483C343.094 151.127 343.817 151.967 344.344 152.944C344.871 153.92 345.19 155.008 345.278 156.131C345.367 157.253 345.222 158.383 344.854 159.439C344.486 160.495 343.905 161.452 343.151 162.241L305.274 201.902C304.942 202.254 304.51 202.48 304.045 202.546C303.581 202.611 303.109 202.512 302.702 202.265C302.622 202.216 302.544 202.162 302.47 202.103Z" fill="#B338FF"/>
<path d="M349.838 196.514C350.108 195.819 350.518 195.196 351.039 194.689C351.56 194.181 352.178 193.802 352.851 193.577C353.524 193.352 354.235 193.288 354.934 193.388C355.633 193.488 356.303 193.75 356.896 194.156L370.369 182.85L371.112 192.32L358.204 201.605C357.499 202.623 356.467 203.331 355.306 203.592C354.144 203.854 352.933 203.652 351.902 203.024C350.87 202.397 350.091 201.387 349.71 200.187C349.33 198.988 349.375 197.681 349.838 196.514Z" fill="#FFB8B8"/>
<path d="M361.897 200.927C361.541 200.809 361.219 200.593 360.965 200.302C360.71 200.01 360.532 199.652 360.447 199.264L359.086 193.166C358.986 192.733 359.008 192.279 359.149 191.859C359.29 191.439 359.543 191.073 359.878 190.806L369.034 180.241L355.566 158.085C354.546 156.746 353.972 155.084 353.932 153.359C353.892 151.635 354.388 149.944 355.344 148.553C356.106 147.444 357.129 146.57 358.31 146.019C359.491 145.468 360.787 145.26 362.067 145.415C363.348 145.571 364.567 146.085 365.601 146.905C366.635 147.725 367.448 148.822 367.957 150.085L380.479 176.087C381.723 178.671 382.034 181.652 381.351 184.464C380.668 187.276 379.039 189.722 376.775 191.335L363.979 200.454C363.587 200.828 363.08 201.035 362.554 201.036C362.331 201.036 362.11 200.999 361.897 200.927Z" fill="#B338FF"/>
<path d="M359.75 135.257C359.472 135.435 359.16 135.542 358.837 135.57C358.515 135.598 358.19 135.547 357.889 135.42C357.588 135.293 357.318 135.094 357.101 134.838C356.883 134.582 356.724 134.276 356.635 133.944L356.628 133.913C356.388 132.867 356.577 131.773 356.639 130.698C356.701 129.623 356.597 128.444 355.907 127.658C354.621 126.193 352.351 126.986 350.5 126.625C349.416 126.373 348.455 125.708 347.797 124.755C347.139 123.802 346.829 122.626 346.926 121.447C346.951 121.224 346.991 121 347.036 120.776C347.149 120.21 347.137 119.623 347.001 119.062C346.866 118.501 346.61 117.981 346.255 117.543C345.899 117.105 345.453 116.761 344.952 116.538C344.451 116.315 343.908 116.219 343.366 116.258C341.499 116.382 339.485 116.998 337.932 115.53C337.362 114.951 336.965 114.206 336.79 113.388C336.615 112.569 336.67 111.714 336.947 110.929C337.816 108.206 340.303 106.769 342.768 105.973C345.816 105.014 349.026 104.792 352.165 105.323C355.303 105.854 358.292 107.125 360.912 109.043C362.477 110.206 363.941 111.671 364.615 113.575C365.289 115.479 364.98 117.887 363.488 119.155C364.656 120.46 365.482 122.07 365.884 123.824C366.285 125.577 366.247 127.412 365.774 129.145C365.047 131.693 361.527 134.153 359.75 135.257Z" fill="#2F2E41"/>
<path d="M433.733 309.632C433.733 309.768 433.682 309.898 433.593 309.994C433.503 310.09 433.381 310.144 433.254 310.144H250.497C250.37 310.144 250.248 310.09 250.158 309.994C250.068 309.898 250.018 309.768 250.018 309.632C250.018 309.497 250.068 309.366 250.158 309.271C250.248 309.175 250.37 309.121 250.497 309.121H433.254C433.381 309.121 433.503 309.175 433.593 309.271C433.682 309.367 433.733 309.497 433.733 309.632Z" fill="#3F3D56"/>
</g>
<defs>
<clipPath id="clip0_357_2210">
<rect width="404.237" height="293.231" fill="white" transform="translate(29.4946 16.9139)"/>
</clipPath>
</defs>
</svg>
