<svg width="18" height="19" viewBox="0 0 18 19" fill="none" xmlns="http://www.w3.org/2000/svg">
<path d="M16.3125 3.17188H1.6875C1.37637 3.17188 1.125 3.42324 1.125 3.73438V14.9844C1.125 15.2955 1.37637 15.5469 1.6875 15.5469H16.3125C16.6236 15.5469 16.875 15.2955 16.875 14.9844V3.73438C16.875 3.42324 16.6236 3.17188 16.3125 3.17188ZM15.6094 5.11953V14.2812H2.39062V5.11953L1.90547 4.7416L2.59629 3.85391L3.34863 4.43926H14.6531L15.4055 3.85391L16.0963 4.7416L15.6094 5.11953ZM14.6531 4.4375L9 8.83203L3.34687 4.4375L2.59453 3.85215L1.90371 4.73984L2.38887 5.11777L8.39355 9.78652C8.56624 9.92068 8.77869 9.99351 8.99736 9.99351C9.21604 9.99351 9.42849 9.92068 9.60117 9.78652L15.6094 5.11953L16.0945 4.7416L15.4037 3.85391L14.6531 4.4375Z" fill="#221C26"/>
</svg>
