<svg width="373" height="277" viewBox="0 0 373 277" fill="none" xmlns="http://www.w3.org/2000/svg">
<g clip-path="url(#clip0_357_2133)">
<path d="M264.759 202.693H63.8932C62.1035 202.691 60.3876 201.978 59.1221 200.709C57.8565 199.441 57.1447 197.721 57.1426 195.928V32.0003C57.1447 30.2065 57.8565 28.4868 59.1221 27.2184C60.3876 25.95 62.1035 25.2365 63.8932 25.2344H264.759C266.549 25.2365 268.264 25.95 269.53 27.2184C270.795 28.4868 271.507 30.2065 271.509 32.0003V195.928C271.507 197.721 270.795 199.441 269.53 200.709C268.264 201.978 266.549 202.691 264.759 202.693Z" fill="#E6E6E6"/>
<path d="M68.4479 30.0488C66.7239 30.0508 65.071 30.7382 63.852 31.96C62.633 33.1819 61.9473 34.8385 61.9453 36.5664V191.363C61.9474 193.09 62.6331 194.747 63.8521 195.969C65.0712 197.19 66.7239 197.878 68.4479 197.88H205.933C222.046 197.861 237.494 191.438 248.887 180.018C260.281 168.599 266.69 153.116 266.708 136.966V36.5664C266.706 34.8385 266.021 33.1819 264.802 31.96C263.583 30.7382 261.93 30.0508 260.206 30.0488L68.4479 30.0488Z" fill="white"/>
<path d="M228.131 99.6699H191.709C190.949 99.6691 190.221 99.3663 189.684 98.8279C189.147 98.2895 188.845 97.5596 188.844 96.7983V78.6294C188.845 77.8681 189.147 77.1382 189.684 76.5998C190.221 76.0615 190.949 75.7587 191.709 75.7578H228.131C228.89 75.7587 229.618 76.0615 230.156 76.5998C230.693 77.1382 230.995 77.8681 230.996 78.6294C233.249 85.059 233.569 91.1683 230.996 96.7983C230.995 97.5596 230.693 98.2896 230.156 98.8279C229.618 99.3663 228.89 99.6691 228.131 99.6699Z" fill="#E6E6E6"/>
<path d="M223.816 97.9135H192.872C192.226 97.9127 191.608 97.6555 191.151 97.1981C190.695 96.7407 190.438 96.1205 190.438 95.4737V80.0374C190.438 79.3906 190.695 78.7704 191.151 78.313C191.608 77.8556 192.226 77.5984 192.872 77.5977H223.816C224.461 77.5984 225.08 77.8556 225.536 78.313C225.993 78.7704 226.249 79.3906 226.25 80.0374C228.338 85.5349 228.674 90.7369 226.25 95.4737C226.249 96.1205 225.993 96.7407 225.536 97.1981C225.08 97.6554 224.461 97.9127 223.816 97.9135Z" fill="white"/>
<path d="M222.148 109.185H197.613C196.891 109.186 196.198 108.9 195.687 108.389C195.176 107.878 194.888 107.185 194.887 106.462C194.885 105.738 195.171 105.044 195.68 104.532C196.189 104.019 196.881 103.73 197.603 103.729H222.148C222.869 103.73 223.56 104.018 224.069 104.529C224.579 105.041 224.865 105.734 224.865 106.457C224.865 107.179 224.579 107.873 224.069 108.384C223.56 108.896 222.869 109.184 222.148 109.185Z" fill="#E6E6E6"/>
<path d="M205.65 81.7656C205.368 81.7666 205.098 81.8795 204.898 82.0797C204.699 82.2799 204.587 82.551 204.586 82.8339V94.3984C204.586 94.5851 204.635 94.7686 204.728 94.9305C204.821 95.0923 204.954 95.2269 205.115 95.3207C205.277 95.4145 205.459 95.4643 205.646 95.465C205.832 95.4658 206.015 95.4175 206.177 95.325L216.361 89.5049C216.525 89.4115 216.661 89.2762 216.756 89.1129C216.85 88.9496 216.899 88.7641 216.899 88.5753C216.898 88.3866 216.848 88.2014 216.753 88.0386C216.657 87.8758 216.521 87.7413 216.356 87.6488L206.173 81.904C206.013 81.8136 205.833 81.7659 205.65 81.7656Z" fill="#E6E6E6"/>
<path d="M354.231 254.234C353.669 253.519 352.906 252.988 352.041 252.711C351.175 252.433 350.246 252.422 349.375 252.679L349.184 252.736L347.474 259.427C347.218 258.43 346.67 256.178 346.324 253.975L346.294 253.793L346.124 253.867C344.337 254.659 342.656 255.674 341.123 256.889C338.406 259.073 336.196 261.824 334.647 264.951C333.098 268.078 332.246 271.505 332.152 274.995L332.149 275.123L332.146 275.204L332.373 275.123L337.232 273.383C339.383 273.573 341.55 273.279 343.573 272.523C345.596 271.766 347.426 270.567 348.928 269.011C350.891 266.936 352.238 264.267 353.539 261.684C353.921 260.932 354.311 260.155 354.71 259.409C355.155 258.597 355.348 257.67 355.262 256.748C355.177 255.826 354.817 254.95 354.231 254.234Z" fill="#F2F2F2"/>
<path d="M230.149 83.5963C230.246 84.1029 230.453 84.5818 230.755 84.9994C231.058 85.417 231.447 85.7632 231.898 86.0135C232.348 86.2637 232.847 86.4121 233.36 86.448C233.874 86.4839 234.389 86.4066 234.869 86.2214L249.391 103.153L251.23 96.9025L236.833 81.4121C236.469 80.6237 235.829 79.9966 235.035 79.6494C234.24 79.3023 233.346 79.2592 232.523 79.5285C231.699 79.7977 231.002 80.3605 230.564 81.1103C230.127 81.86 229.979 82.7446 230.149 83.5963L230.149 83.5963Z" fill="#FFB8B8"/>
<path d="M288.674 271.075H283.868L281.582 252.496H288.675L288.674 271.075Z" fill="#FFB6B6"/>
<path d="M288.547 269.502L283.416 267.41L283.269 267.35L280.436 269.502C278.836 269.502 277.302 270.139 276.171 271.273C275.04 272.406 274.405 273.944 274.404 275.547V275.743H289.899V269.502H288.547Z" fill="#2F2E41"/>
<path d="M322.957 271.075H318.152L315.865 252.496H322.958L322.957 271.075Z" fill="#FFB6B6"/>
<path d="M322.83 269.502L317.699 267.41L317.552 267.35L314.719 269.502C313.119 269.502 311.585 270.139 310.454 271.273C309.323 272.406 308.688 273.944 308.688 275.547V275.743H324.182V269.502H322.83Z" fill="#2F2E41"/>
<path d="M311.615 160.133C311.615 160.133 317.643 166.418 317.643 171.582C317.643 176.747 316.136 183.837 317.643 185.389C319.15 186.941 321.034 188.829 318.773 191.095C316.513 193.36 315.383 194.493 316.889 196.003C318.396 197.514 317.643 223.945 317.643 223.945L325.554 259.438H315.587L302.95 223.945L299.56 194.493L288.595 222.812L289.805 259.742L279.385 259.437L275.072 220.169C275.072 220.169 281.477 182.815 280.347 181.857C279.216 180.9 280.347 178.967 280.347 178.967L283.36 164.664L311.615 160.133Z" fill="#2F2E41"/>
<path d="M299.814 115.569C299.814 115.569 301.864 107.474 292.421 105.154C282.979 102.833 255.987 99.851 255.987 99.851L242.347 85.3438L237.725 92.0714L253.016 111.117L289.249 118.576L299.814 115.569Z" fill="#3F3D56"/>
<path d="M239.97 91.5771C240.394 91.027 240.725 90.4115 240.952 89.7548L242.908 84.937L242.4 84.9158C241.698 84.7833 240.975 84.8011 240.28 84.9681C239.584 85.1351 238.932 85.4475 238.365 85.8847C237.799 86.322 237.331 86.8744 236.992 87.5055C236.654 88.1367 236.452 88.8325 236.401 89.5472C236.336 90.1655 236.447 90.7894 236.72 91.3475C236.859 91.6242 237.062 91.8639 237.311 92.0472C237.56 92.2304 237.849 92.3518 238.154 92.4015C238.501 92.4201 238.847 92.3549 239.163 92.2114C239.479 92.0679 239.756 91.8504 239.97 91.5771Z" fill="#E6E6E6"/>
<path d="M281.437 166.592L280.307 174.804C280.307 174.804 282.567 177.237 283.697 176.933C284.827 176.628 288.971 174.858 288.971 174.858C288.971 174.858 293.869 177.541 296.506 177.845C299.143 178.149 313.082 176.324 313.459 175.412C313.836 174.5 318.214 170.928 318.214 170.928L316.473 160.51L281.437 166.592Z" fill="#E6E6E6"/>
<path d="M318.143 137.866C318.143 137.866 317.186 145.784 317.939 146.513C318.693 147.238 317.186 151.825 315.679 154.846C314.172 157.867 316.809 158.244 316.809 160.51C316.809 162.775 317.939 171.082 317.939 171.082C317.939 171.082 306.261 171.837 304.377 169.949C302.493 168.061 299.479 169.572 295.335 173.725C291.191 177.878 282.191 174.48 280.308 172.592C278.424 170.704 281.773 163.908 282.903 162.59C284.034 161.272 281.815 162.798 280.684 158.622C279.554 154.446 281.773 154.846 283.657 152.958C285.54 151.07 283.657 147.672 282.15 144.273C280.643 140.875 281.773 115.577 281.773 109.536C281.773 103.494 290.061 102.739 290.061 102.739L293.342 98.6046L295.754 95.5651L300.478 95.3763L300.602 95.3725L305.172 95.1875L307.391 97.7777L312.288 103.494L317.939 104.627C322.46 106.137 321.33 115.577 321.33 115.577L318.143 137.866Z" fill="#3F3D56"/>
<path d="M300.245 93.738C305.593 93.738 309.928 89.3925 309.928 84.0321C309.928 78.6717 305.593 74.3262 300.245 74.3262C294.896 74.3262 290.561 78.6717 290.561 84.0321C290.561 89.3925 294.896 93.738 300.245 93.738Z" fill="#FFB6B6"/>
<path d="M311.472 80.7659C308.808 79.1287 309.15 74.8479 306.583 73.3531C305.308 72.6161 303.873 72.1989 302.402 72.137C300.931 72.0751 299.467 72.3702 298.134 72.9974C296.327 72.2223 294.161 72.8409 292.715 74.2405C291.269 75.6402 290.486 77.7049 290.255 79.7815C290.089 81.8678 290.238 83.9674 290.699 86.0088C290.842 85.1886 290.986 84.3684 291.13 83.5482L298.764 81.8759C298.088 82.4844 297.412 83.093 296.736 83.7016C300.194 84.4905 303.822 83.9219 306.874 82.1127C310.197 83.6059 309.595 86.9596 306.677 91.4102C307.808 93.2981 314.507 82.6314 311.472 80.7659Z" fill="#2F2E41"/>
<path d="M307.39 97.7773C307.368 97.7949 307.346 97.8113 307.322 97.8264C306.524 98.3035 305.611 98.5516 304.681 98.5438C303.465 98.6455 302.258 98.266 301.317 97.4866C300.824 97.0184 298.861 98.0076 297.573 98.5551C296.221 99.1165 294.706 99.1341 293.342 98.6042L295.753 95.5647L299.727 94.6816H300.719L305.171 95.1871L307.39 97.7773Z" fill="#E6E6E6"/>
<path d="M372.413 276.207L237.613 276.36C237.536 276.361 237.459 276.346 237.387 276.316C237.315 276.287 237.25 276.244 237.195 276.189C237.14 276.134 237.096 276.069 237.066 275.998C237.036 275.926 237.02 275.849 237.02 275.771C237.019 275.694 237.034 275.616 237.063 275.544C237.093 275.473 237.136 275.407 237.19 275.352C237.245 275.297 237.31 275.253 237.381 275.222C237.453 275.192 237.53 275.177 237.607 275.176H237.613L372.413 275.023C372.569 275.024 372.719 275.087 372.829 275.198C372.939 275.309 373.001 275.459 373.001 275.615C373.001 275.772 372.939 275.922 372.829 276.033C372.719 276.144 372.569 276.207 372.413 276.207Z" fill="#CACACA"/>
<path d="M211.008 77.4072H210.016V6.29102H249.033V7.28535H211.008V77.4072Z" fill="#3F3D56"/>
<path d="M279.378 0H253.087C251.377 0 249.737 0.680941 248.527 1.89302C247.318 3.1051 246.639 4.74903 246.639 6.46316C246.639 8.1773 247.318 9.82124 248.527 11.0333C249.737 12.2454 251.377 12.9263 253.087 12.9263H279.378C281.088 12.9263 282.728 12.2454 283.937 11.0333C285.147 9.82124 285.826 8.1773 285.826 6.46316C285.826 4.74903 285.147 3.1051 283.937 1.89302C282.728 0.680941 281.088 0 279.378 0Z" fill="#B338FF"/>
<path d="M209.937 83.9114C213.21 83.9114 215.863 81.2524 215.863 77.9723C215.863 74.6922 213.21 72.0332 209.937 72.0332C206.665 72.0332 204.012 74.6922 204.012 77.9723C204.012 81.2524 206.665 83.9114 209.937 83.9114Z" fill="#B338FF"/>
<path d="M138.531 100.29L164.527 94.2612L171.989 92.5306C172.922 92.3141 172.534 90.8739 171.6 91.0905L145.605 97.1197L138.143 98.8503C137.21 99.0668 137.597 100.507 138.531 100.29H138.531Z" fill="#F2F2F2"/>
<path d="M165.376 84.5883L179.292 91.0044C179.767 91.169 180.212 91.4104 180.609 91.719C180.993 92.096 180.713 92.4587 180.4 92.7872C179.463 93.6639 178.474 94.4822 177.438 95.2376L171.509 100.069C170.765 100.675 171.815 101.733 172.552 101.133L177.716 96.9249L180.298 94.8211C181.029 94.225 181.92 93.6167 182.214 92.6672C182.831 90.6723 180.394 89.8791 179.04 89.2546L172.979 86.4605L166.133 83.3042C165.27 82.9063 164.506 84.1874 165.376 84.5883Z" fill="#F2F2F2"/>
<path d="M357.421 133.43C354.942 131.746 351.93 131.12 348.986 130.907C345.64 130.725 342.286 130.729 338.94 130.919C335.465 131.057 331.996 131.309 328.535 131.675C325.078 132.042 321.636 132.522 318.209 133.117C315.14 133.595 312.103 134.262 309.116 135.111C306.288 135.896 303.624 137.185 301.252 138.917C299.171 140.486 297.57 142.609 296.632 145.045C295.711 147.329 295.554 149.851 296.186 152.232C296.522 153.388 297.098 154.461 297.876 155.379C298.775 156.387 299.84 157.232 301.025 157.878C303.484 159.286 306.271 160.132 308.495 161.934C309.082 162.405 309.617 162.938 310.09 163.523C310.412 163.976 310.857 164.327 311.371 164.533C311.859 164.704 312.387 164.726 312.887 164.597C313.387 164.468 313.838 164.193 314.183 163.808C314.629 163.197 315 162.535 315.29 161.836L316.463 159.567C316.542 159.368 316.64 159.178 316.757 158.999C316.845 158.894 316.687 159.002 316.717 158.974C316.734 158.959 316.768 158.959 316.787 158.947C316.884 158.899 316.985 158.86 317.09 158.831C318.175 158.416 319.266 158.014 320.361 157.625C324.403 156.181 328.494 154.85 332.65 153.772C334.788 153.198 336.957 152.743 339.146 152.41C341.981 152.006 344.86 152.053 347.708 151.776C350.774 151.478 353.938 150.856 356.568 149.164C358.742 147.839 360.417 145.83 361.331 143.45C361.727 142.315 361.863 141.106 361.728 139.912C361.387 137.21 359.625 134.928 357.421 133.43Z" fill="#E6E6E6"/>
<path d="M352.345 134.95C350.105 133.428 347.383 132.862 344.722 132.67C341.698 132.505 338.668 132.509 335.644 132.681C332.504 132.805 329.369 133.033 326.241 133.364C323.118 133.695 320.007 134.129 316.91 134.666C314.137 135.099 311.393 135.701 308.693 136.469C306.137 137.178 303.73 138.343 301.587 139.908C299.706 141.326 298.259 143.245 297.411 145.445C296.579 147.509 296.438 149.789 297.008 151.94C297.312 152.985 297.833 153.954 298.536 154.784C299.348 155.695 300.311 156.459 301.381 157.042C303.604 158.314 306.122 159.079 308.132 160.708C308.662 161.134 309.146 161.615 309.574 162.144C309.864 162.553 310.266 162.87 310.731 163.057C311.172 163.211 311.649 163.231 312.101 163.115C312.553 162.998 312.961 162.75 313.272 162.401C313.675 161.849 314.011 161.251 314.272 160.619L315.333 158.569C315.404 158.389 315.492 158.217 315.598 158.056C315.677 157.961 315.535 158.058 315.562 158.033C315.577 158.019 315.608 158.02 315.625 158.009C315.713 157.965 315.804 157.93 315.899 157.903C316.88 157.529 317.865 157.165 318.855 156.814C322.508 155.509 326.205 154.306 329.96 153.332C331.893 152.813 333.852 152.402 335.831 152.101C338.393 151.736 340.994 151.778 343.567 151.528C346.339 151.259 349.198 150.697 351.574 149.167C353.539 147.971 355.053 146.155 355.878 144.004C356.236 142.979 356.359 141.886 356.237 140.807C355.929 138.365 354.337 136.304 352.345 134.95Z" fill="white"/>
<path d="M347.652 137.699L311.143 144.448C311.038 144.468 310.931 144.468 310.827 144.446C310.723 144.424 310.624 144.382 310.536 144.322C310.448 144.262 310.373 144.185 310.315 144.096C310.257 144.007 310.217 143.907 310.197 143.802C310.178 143.698 310.179 143.59 310.201 143.486C310.223 143.382 310.265 143.283 310.325 143.195C310.386 143.107 310.462 143.032 310.552 142.974C310.641 142.916 310.74 142.876 310.845 142.857L310.85 142.856L347.359 136.107C347.463 136.088 347.57 136.089 347.674 136.112C347.778 136.134 347.876 136.176 347.964 136.237C348.051 136.297 348.126 136.374 348.183 136.463C348.241 136.552 348.281 136.652 348.3 136.756C348.319 136.861 348.318 136.968 348.295 137.072C348.273 137.176 348.231 137.275 348.171 137.362C348.111 137.45 348.034 137.525 347.945 137.583C347.856 137.641 347.756 137.68 347.652 137.699V137.699Z" fill="#E6E6E6"/>
<path d="M348.552 142.586L312.043 149.335C311.939 149.355 311.831 149.354 311.727 149.332C311.623 149.311 311.524 149.269 311.437 149.209C311.349 149.149 311.274 149.072 311.216 148.983C311.157 148.894 311.117 148.794 311.098 148.689C311.078 148.584 311.079 148.477 311.101 148.373C311.123 148.268 311.166 148.17 311.226 148.082C311.286 147.994 311.363 147.919 311.452 147.861C311.541 147.803 311.641 147.763 311.745 147.744L311.75 147.743L348.259 140.994C348.364 140.975 348.471 140.976 348.574 140.998C348.678 141.021 348.777 141.063 348.864 141.123C348.951 141.184 349.026 141.261 349.084 141.35C349.141 141.439 349.181 141.539 349.2 141.643C349.219 141.748 349.218 141.855 349.196 141.959C349.174 142.063 349.131 142.162 349.071 142.249C349.011 142.337 348.934 142.412 348.845 142.469C348.756 142.527 348.657 142.567 348.552 142.586Z" fill="#E6E6E6"/>
<path d="M317.196 153.435L312.942 154.222C312.731 154.26 312.515 154.213 312.339 154.091C312.163 153.969 312.042 153.783 312.004 153.572C311.965 153.361 312.011 153.144 312.132 152.967C312.253 152.791 312.439 152.669 312.649 152.63L316.903 151.843C317.114 151.805 317.331 151.852 317.507 151.973C317.683 152.095 317.803 152.282 317.842 152.493C317.881 152.704 317.835 152.921 317.714 153.098C317.592 153.275 317.406 153.396 317.196 153.435Z" fill="#E6E6E6"/>
<path d="M314.116 173.751C315.981 173.407 317.213 171.612 316.869 169.743C316.526 167.874 314.735 166.639 312.87 166.983C311.006 167.328 309.773 169.122 310.117 170.991C310.461 172.86 312.251 174.096 314.116 173.751Z" fill="#D1D3D4"/>
<path d="M125.172 98.7474H93.9877C92.54 98.7457 91.1522 98.1686 90.1285 97.1426C89.1049 96.1167 88.529 94.7257 88.5273 93.2747V72.6758C88.529 71.2249 89.1049 69.8339 90.1285 68.8079C91.1522 67.782 92.54 67.2048 93.9877 67.2031H125.172C126.62 67.2048 128.008 67.782 129.031 68.8079C130.055 69.8339 130.631 71.2249 130.632 72.6758V93.2748C130.631 94.7257 130.055 96.1167 129.031 97.1426C128.008 98.1686 126.62 98.7457 125.172 98.7474Z" fill="#E6E6E6"/>
<path d="M121.744 97.6391H94.6038C93.3439 97.6376 92.136 97.1353 91.2451 96.2424C90.3542 95.3495 89.853 94.1389 89.8516 92.8761V74.9485C89.853 73.6858 90.3542 72.4751 91.2451 71.5822C92.136 70.6893 93.3439 70.187 94.6038 70.1855H121.744C123.004 70.187 124.212 70.6893 125.103 71.5822C125.994 72.4751 126.495 73.6858 126.496 74.9485V92.8761C126.495 94.1389 125.994 95.3495 125.103 96.2424C124.212 97.1353 123.004 97.6376 121.744 97.6391Z" fill="white"/>
<path d="M129.564 117.307H89.5506C89.3034 117.307 89.0665 117.208 88.8918 117.032C88.7172 116.857 88.6191 116.619 88.6191 116.371C88.6191 116.124 88.7172 115.886 88.8918 115.71C89.0665 115.535 89.3034 115.436 89.5506 115.436H129.564C129.812 115.436 130.048 115.535 130.223 115.71C130.398 115.886 130.496 116.124 130.496 116.371C130.496 116.619 130.398 116.857 130.223 117.032C130.048 117.208 129.812 117.307 129.564 117.307Z" fill="#E6E6E6"/>
<path d="M129.564 111.959H89.5506C89.3034 111.959 89.0665 111.86 88.8918 111.685C88.7172 111.509 88.6191 111.271 88.6191 111.024C88.6191 110.776 88.7172 110.538 88.8918 110.363C89.0665 110.187 89.3034 110.088 89.5506 110.088H129.564C129.812 110.088 130.048 110.187 130.223 110.363C130.398 110.538 130.496 110.776 130.496 111.024C130.496 111.271 130.398 111.509 130.223 111.685C130.048 111.86 129.812 111.959 129.564 111.959Z" fill="#E6E6E6"/>
<path d="M129.565 122.655H89.5508C89.3032 122.655 89.0657 122.556 88.8906 122.381C88.7155 122.205 88.6172 121.967 88.6172 121.719C88.6172 121.471 88.7155 121.233 88.8906 121.057C89.0657 120.882 89.3032 120.783 89.5508 120.783H129.565C129.812 120.783 130.05 120.882 130.225 121.057C130.4 121.233 130.498 121.471 130.498 121.719C130.498 121.967 130.4 122.205 130.225 122.381C130.05 122.556 129.812 122.655 129.565 122.655Z" fill="#E6E6E6"/>
<path d="M129.565 128H89.5508C89.3032 128 89.0657 127.902 88.8906 127.726C88.7155 127.551 88.6172 127.313 88.6172 127.065C88.6172 126.816 88.7155 126.578 88.8906 126.403C89.0657 126.228 89.3032 126.129 89.5508 126.129H129.565C129.812 126.129 130.05 126.228 130.225 126.403C130.4 126.578 130.498 126.816 130.498 127.065C130.498 127.313 130.4 127.551 130.225 127.726C130.05 127.902 129.812 128 129.565 128Z" fill="#E6E6E6"/>
<path d="M129.565 133.348H89.5508C89.3032 133.348 89.0657 133.25 88.8906 133.074C88.7155 132.899 88.6172 132.661 88.6172 132.412C88.6172 132.164 88.7155 131.926 88.8906 131.751C89.0657 131.575 89.3032 131.477 89.5508 131.477H129.565C129.812 131.477 130.05 131.575 130.225 131.751C130.4 131.926 130.498 132.164 130.498 132.412C130.498 132.661 130.4 132.899 130.225 133.074C130.05 133.25 129.812 133.348 129.565 133.348Z" fill="#E6E6E6"/>
<path d="M129.564 138.696H89.5506C89.3034 138.695 89.0665 138.596 88.8918 138.421C88.7172 138.245 88.6191 138.008 88.6191 137.76C88.6191 137.512 88.7172 137.274 88.8918 137.099C89.0665 136.924 89.3034 136.825 89.5506 136.824H129.564C129.812 136.825 130.048 136.924 130.223 137.099C130.398 137.274 130.496 137.512 130.496 137.76C130.496 138.008 130.398 138.245 130.223 138.421C130.048 138.596 129.812 138.695 129.564 138.696Z" fill="#E6E6E6"/>
<path d="M107.557 126.432H108.549V164.735H36.793V163.741H107.557V126.432Z" fill="#3F3D56"/>
<path d="M6.44856 171.026H32.7389C34.4491 171.026 36.0893 170.345 37.2987 169.133C38.508 167.921 39.1874 166.277 39.1874 164.563C39.1874 162.849 38.508 161.205 37.2987 159.993C36.0893 158.781 34.4491 158.1 32.7389 158.1H6.44856C4.7383 158.1 3.09808 158.781 1.88874 159.993C0.679403 161.205 0 162.849 0 164.563C0 166.277 0.679403 167.921 1.88874 169.133C3.09808 170.345 4.7383 171.026 6.44856 171.026Z" fill="#B338FF"/>
<path d="M108.744 129.318C112.017 129.318 114.67 126.659 114.67 123.379C114.67 120.098 112.017 117.439 108.744 117.439C105.471 117.439 102.818 120.098 102.818 123.379C102.818 126.659 105.471 129.318 108.744 129.318Z" fill="#B338FF"/>
<path d="M139.371 125.029C148.071 126.882 145.858 127.244 154.558 129.097L162.049 130.693C162.987 130.893 163.243 129.423 162.306 129.224C153.606 127.37 155.819 127.009 147.119 125.155L139.627 123.56C138.69 123.36 138.434 124.829 139.371 125.029H139.371Z" fill="#F2F2F2"/>
<path d="M159.411 120.694L169.313 132.408C169.674 132.759 169.975 133.166 170.204 133.614C170.393 134.119 169.987 134.329 169.564 134.493C168.345 134.891 167.104 135.213 165.846 135.458L158.434 137.321C157.504 137.555 158.009 138.959 158.931 138.728L165.386 137.105L168.613 136.293C169.528 136.063 170.591 135.89 171.258 135.154C172.66 133.608 170.786 131.856 169.823 130.716L165.511 125.614L160.64 119.852C160.026 119.125 158.793 119.962 159.411 120.694V120.694Z" fill="#F2F2F2"/>
<path d="M190.804 171.757C198.414 171.757 204.584 165.574 204.584 157.946C204.584 150.318 198.414 144.135 190.804 144.135C183.193 144.135 177.023 150.318 177.023 157.946C177.023 165.574 183.193 171.757 190.804 171.757Z" fill="#E6E6E6"/>
<path d="M189.46 169.998C195.246 169.998 199.937 165.297 199.937 159.498C199.937 153.699 195.246 148.998 189.46 148.998C183.675 148.998 178.984 153.699 178.984 159.498C178.984 165.297 183.675 169.998 189.46 169.998Z" fill="white"/>
<path d="M187.582 166.687C187.344 166.687 187.109 166.631 186.896 166.525C186.683 166.418 186.498 166.263 186.355 166.072L182.596 161.048C182.475 160.887 182.387 160.703 182.337 160.508C182.287 160.312 182.276 160.109 182.304 159.909C182.333 159.71 182.4 159.517 182.503 159.344C182.605 159.17 182.741 159.018 182.902 158.897C183.063 158.776 183.246 158.688 183.441 158.638C183.636 158.588 183.839 158.576 184.038 158.605C184.237 158.633 184.429 158.701 184.602 158.803C184.775 158.906 184.927 159.042 185.048 159.203L185.049 159.205L187.508 162.491L193.825 152.994C193.937 152.826 194.08 152.682 194.247 152.569C194.415 152.457 194.603 152.378 194.8 152.339C194.998 152.299 195.201 152.299 195.399 152.338C195.596 152.377 195.784 152.455 195.952 152.567C196.12 152.679 196.264 152.823 196.376 152.99C196.488 153.158 196.566 153.347 196.605 153.545C196.644 153.743 196.644 153.947 196.605 154.145C196.566 154.343 196.488 154.531 196.376 154.699L188.857 166.003C188.721 166.207 188.538 166.376 188.324 166.495C188.109 166.614 187.869 166.679 187.624 166.686C187.61 166.687 187.596 166.687 187.582 166.687Z" fill="#E6E6E6"/>
<path d="M319.477 172.176C319.92 171.915 320.301 171.559 320.593 171.134C320.885 170.709 321.08 170.225 321.165 169.716C321.25 169.207 321.222 168.686 321.084 168.189C320.946 167.692 320.701 167.231 320.367 166.839L331.431 147.461L324.939 147.814L315.188 166.593C314.568 167.201 314.193 168.015 314.132 168.881C314.071 169.747 314.329 170.606 314.858 171.294C315.387 171.982 316.149 172.452 317 172.615C317.851 172.777 318.733 172.621 319.477 172.176H319.477Z" fill="#FFB8B8"/>
<path d="M307.016 104.249C307.016 104.249 318.734 100.473 321.748 109.535C324.762 118.597 334.894 143.14 334.894 143.14L324.009 165.418L319.111 160.131L324.345 144.65L309.276 121.995L307.016 104.249Z" fill="#3F3D56"/>
<path d="M324.381 163.143C324.028 162.545 323.581 162.008 323.056 161.554L319.317 157.947L319.109 158.412C318.726 159.017 318.474 159.696 318.371 160.406C318.268 161.115 318.316 161.838 318.511 162.527C318.706 163.217 319.045 163.857 319.504 164.406C319.963 164.955 320.533 165.401 321.177 165.714C321.726 166.003 322.345 166.131 322.963 166.084C323.271 166.057 323.568 165.957 323.831 165.793C324.093 165.629 324.312 165.405 324.472 165.14C324.617 164.824 324.685 164.478 324.669 164.13C324.653 163.783 324.555 163.444 324.381 163.143Z" fill="#E6E6E6"/>
<path d="M190.683 176.527H189.691V214.831H223.252V213.836H190.683V176.527Z" fill="#3F3D56"/>
<path d="M260.047 214.658C260.045 212.945 259.365 211.302 258.156 210.09C256.947 208.878 255.308 208.197 253.598 208.195H227.308C225.598 208.195 223.957 208.876 222.748 210.088C221.539 211.3 220.859 212.944 220.859 214.658C220.859 216.373 221.539 218.017 222.748 219.229C223.957 220.441 225.598 221.122 227.308 221.122H253.598C255.308 221.12 256.947 220.439 258.156 219.227C259.365 218.015 260.045 216.372 260.047 214.658Z" fill="#B338FF"/>
<path d="M189.498 179.413C192.771 179.413 195.424 176.754 195.424 173.474C195.424 170.194 192.771 167.535 189.498 167.535C186.225 167.535 183.572 170.194 183.572 173.474C183.572 176.754 186.225 179.413 189.498 179.413Z" fill="#B338FF"/>
</g>
<defs>
<clipPath id="clip0_357_2133">
<rect width="373" height="276.359" fill="white"/>
</clipPath>
</defs>
</svg>
