<svg width="24" height="25" viewBox="0 0 24 25" fill="none" xmlns="http://www.w3.org/2000/svg">
<path d="M21.6328 7.00556C21.3187 6.27815 20.8657 5.61898 20.2992 5.06494C19.7323 4.50925 19.064 4.06765 18.3305 3.76416C17.5699 3.4482 16.7541 3.28648 15.9305 3.28838C14.775 3.28838 13.6477 3.60478 12.668 4.20244C12.4336 4.34541 12.2109 4.50244 12 4.67353C11.7891 4.50244 11.5664 4.34541 11.332 4.20244C10.3523 3.60478 9.225 3.28838 8.06953 3.28838C7.2375 3.28838 6.43125 3.44775 5.66953 3.76416C4.93359 4.06885 4.27031 4.50713 3.70078 5.06494C3.13359 5.61835 2.6805 6.27768 2.36719 7.00556C2.04141 7.7626 1.875 8.5665 1.875 9.39385C1.875 10.1743 2.03438 10.9876 2.35078 11.8149C2.61563 12.5063 2.99531 13.2235 3.48047 13.9478C4.24922 15.0938 5.30625 16.2892 6.61875 17.5009C8.79375 19.5095 10.9477 20.897 11.0391 20.9532L11.5945 21.3095C11.8406 21.4665 12.157 21.4665 12.4031 21.3095L12.9586 20.9532C13.05 20.8946 15.2016 19.5095 17.3789 17.5009C18.6914 16.2892 19.7484 15.0938 20.5172 13.9478C21.0023 13.2235 21.3844 12.5063 21.6469 11.8149C21.9633 10.9876 22.1227 10.1743 22.1227 9.39385C22.125 8.5665 21.9586 7.7626 21.6328 7.00556ZM12 19.4556C12 19.4556 3.65625 14.1095 3.65625 9.39385C3.65625 7.00556 5.63203 5.06963 8.06953 5.06963C9.78281 5.06963 11.2688 6.02588 12 7.42275C12.7312 6.02588 14.2172 5.06963 15.9305 5.06963C18.368 5.06963 20.3438 7.00556 20.3438 9.39385C20.3438 14.1095 12 19.4556 12 19.4556Z" fill="#B338FF"/>
<path opacity="0.1" d="M15.9305 5.07031C14.2172 5.07031 12.7312 6.02656 12 7.42344C11.2688 6.02656 9.78281 5.07031 8.06953 5.07031C5.63203 5.07031 3.65625 7.00625 3.65625 9.39453C3.65625 14.1102 12 19.4562 12 19.4562C12 19.4562 20.3438 14.1102 20.3438 9.39453C20.3438 7.00625 18.368 5.07031 15.9305 5.07031Z" fill="#B338FF"/>
</svg>
